# xmcd
#
# Track frame offsets: 
#        150
#        20216
#        40602
#        53717
#        80905
#        106129
#        122722
#        143739
#        163633
#        187461
#        203352
#        220542
#        241515
#
# Disc length: 3435 seconds
#
# Revision: 1
# Processed by: cddbd v1.5.2PL0 Copyright (c) Steve Scherf et al.
# Submitted via: ExactAudioCopy v0.99pb4
#
DISCID=ac0d690d
DTITLE=Randall Bramblett - Rich Someday
DYEAR=2006
DGENRE=Rock
TTITLE0=Where Are You Tonight
TTITLE1=Beautiful Blur
TTITLE2=Rich Someday
TTITLE3=It's Alright
TTITLE4=Silence
TTITLE5=Somebody Like Me
TTITLE6=Fading
TTITLE7=Rainville
TTITLE8=Queen of England
TTITLE9=Hate To See You Go
TTITLE10=Oil Spot
TTITLE11=Stupid Shoes
TTITLE12=Concrete Mind
EXTD=
EXTT0=
EXTT1=
EXTT2=
EXTT3=
EXTT4=
EXTT5=
EXTT6=
EXTT7=
EXTT8=
EXTT9=
EXTT10=
EXTT11=
EXTT12=
PLAYORDER=
